# xmcd
#
# Track frame offsets:
#	150
#	16245
#	32335
#	43360
#	63182
#	98545
#	132737
#	150492
#	162165
#	182622
#	207680
#	227655
#
# Disc length: 3239 seconds
#
# Revision: 1
# Processed by: cddbd v1.5.1PL0 Copyright (c) Steve Scherf et al.
# Submitted via: audiograbber 1.83.01
#
DISCID=970ca50c
DTITLE=Blue Band - the blue band
DYEAR=1900
DGENRE=Blues
TTITLE0=Late For Dinner
TTITLE1=Too Close To The Fire
TTITLE2=Patty C
TTITLE3=Material Lies
TTITLE4=I Ain't Got The Fever No More
TTITLE5=Some Bunk Funk
TTITLE6=Ain't Gonna Be For Nothin'
TTITLE7=Bad Cruisin'
TTITLE8=Christmas Tears
TTITLE9=Donkey
TTITLE10=Mama, He Treats Your Daughter Mean
TTITLE11=Tears Of A Clown
EXTD=
EXTT0=
EXTT1=
EXTT2=
EXTT3=
EXTT4=
EXTT5=
EXTT6=
EXTT7=
EXTT8=
EXTT9=
EXTT10=
EXTT11=
PLAYORDER=
